<?xml version="1.0" encoding="utf-8"?>
<!-- Generator: Adobe Illustrator 16.0.0, SVG Export Plug-In . SVG Version: 6.00 Build 0)  -->
<!DOCTYPE svg PUBLIC "-//W3C//DTD SVG 1.1//EN" "http://www.w3.org/Graphics/SVG/1.1/DTD/svg11.dtd">
<svg version="1.1" id="Capa_1" xmlns="http://www.w3.org/2000/svg" xmlns:xlink="http://www.w3.org/1999/xlink" x="0px" y="0px"
	 width="20.375px" height="20.375px" viewBox="0 491.625 20.375 20.375" enable-background="new 0 491.625 20.375 20.375"
	 xml:space="preserve">
<g display="none">
	<g display="inline">
		<path fill="#59876A" d="M10.001,491.622C4.487,491.622,0,496.107,0,501.623s4.487,10.002,10.001,10.002
			s10.001-4.486,10.001-10.002S15.516,491.622,10.001,491.622z M10.001,510.957c-5.147,0-9.335-4.187-9.335-9.334
			c0-5.146,4.188-9.334,9.335-9.334s9.335,4.188,9.335,9.334C19.336,506.771,15.149,510.957,10.001,510.957z"/>
		<path fill="#59876A" d="M10.001,493.623c-0.184,0-0.334,0.147-0.334,0.332v7.668h-5c-0.184,0-0.333,0.149-0.333,0.334
			c0,0.184,0.149,0.334,0.333,0.334h5.334c0.184,0,0.334-0.15,0.334-0.334v-8.002C10.335,493.771,10.186,493.623,10.001,493.623z"/>
	</g>
</g>
<g>
	<g>
		<path fill="#FFFFFF" d="M18.702,505.723c-0.046-0.089-0.129-0.152-0.227-0.174c-0.025-0.005-2.004-0.441-4.526-0.791
			c-0.003-0.011-0.006-0.021-0.011-0.033c-1.112-2.596-1.48-2.596-1.678-2.596c-0.238,0-1.424,0.244-2.388,0.451v-2.498
			c0.014,0,0.029-0.001,0.043-0.003c0.331,0.089,0.666,0.132,0.999,0.132c1.009,0,1.992-0.396,2.729-1.135
			c1.023-1.022,1.388-2.516,0.954-3.896c-0.034-0.106-0.117-0.189-0.224-0.223c-1.381-0.436-2.873-0.07-3.896,0.953
			c-0.16,0.159-0.3,0.33-0.427,0.51c-0.128-1.009-0.584-1.967-1.333-2.716c-1.236-1.236-3.041-1.678-4.709-1.152
			c-0.106,0.033-0.189,0.116-0.223,0.223c-0.526,1.669-0.084,3.474,1.152,4.71c0.892,0.892,2.08,1.369,3.298,1.369
			c0.317,0,0.637-0.033,0.954-0.1v3.974c-0.132,0.028-0.25,0.055-0.345,0.076c-0.713-0.138-1.889-0.289-2.284,0.106l-0.625,0.626
			l-0.947,0.315c-1.15,0.383-1.544,2.083-1.588,2.285c-0.39-0.235-0.776-0.517-1.146-0.85c-0.063-0.058-0.144-0.088-0.229-0.088
			C1.269,505.2,1,505.567,1,505.882c0,0.099,0,0.282,0.717,1.114c0.277,0.32,0.861,0.964,1.66,1.66
			C4.605,509.726,6.433,511,8.165,511c1.996,0,3.423-0.421,4.464-0.727c0.565-0.166,1.01-0.297,1.335-0.297
			c1.04,0,3.042-0.332,3.127-0.347c0.117-0.02,0.216-0.099,0.261-0.209l1.364-3.412C18.755,505.916,18.749,505.812,18.702,505.723z
			 M10.958,496.394c0.8-0.8,1.948-1.111,3.036-0.835c0.276,1.088-0.035,2.236-0.835,3.036c-0.731,0.731-1.755,1.053-2.757,0.891
			c0.277-0.459,0.666-0.986,0.985-1.146c0.168-0.084,0.237-0.289,0.152-0.457c-0.084-0.169-0.289-0.237-0.458-0.152
			c-0.399,0.198-0.774,0.657-1.054,1.07C9.985,497.914,10.312,497.04,10.958,496.394z M7.634,496.271
			c0.895,0.596,1.218,1.827,1.223,1.847c0,0.001,0.001,0.002,0.001,0.002c-1.25,0.197-2.526-0.205-3.439-1.118
			c-1.013-1.013-1.4-2.473-1.034-3.849c1.375-0.366,2.835,0.021,3.848,1.034c0.884,0.884,1.292,2.108,1.138,3.32
			c-0.197-0.5-0.611-1.306-1.358-1.804c-0.157-0.105-0.369-0.062-0.474,0.095C7.436,495.955,7.478,496.167,7.634,496.271z
			 M4.064,506.291c0.084-0.422,0.453-1.562,1.139-1.791l1.023-0.341c0.049-0.018,0.096-0.046,0.133-0.083l0.677-0.677
			c0.167-0.103,0.995-0.062,1.745,0.088c0.046,0.01,0.094,0.009,0.141-0.001c1.356-0.302,2.862-0.616,3.26-0.667
			c0.197,0.218,0.623,1.038,0.981,1.836c-0.396-0.049-0.801-0.095-1.21-0.136c-3.39-0.339-5.34-0.047-5.798,0.868
			c-0.092,0.185-0.086,0.385,0.017,0.55c0.282,0.457,1.285,0.627,3.701,0.627c0.343,0,0.503,0.091,0.536,0.168
			c0.028,0.069-0.007,0.179-0.084,0.263c-0.174,0.104-1.324,0.436-2.981,0.331c-0.933-0.06-2.149-0.271-3.363-0.871
			C4.02,506.41,4.051,506.354,4.064,506.291z M16.791,508.988c-0.526,0.082-2.02,0.306-2.826,0.306
			c-0.423,0-0.911,0.144-1.528,0.325c-1.002,0.295-2.375,0.699-4.272,0.699c-1.475,0-3.102-1.123-4.207-2.063
			c-1.176-1.002-1.978-1.975-2.218-2.334c0.046-0.012,0.104-0.023,0.164-0.031c1.856,1.614,4.019,2.048,5.519,2.124
			c1.55,0.08,3.058-0.212,3.372-0.525c0.281-0.281,0.378-0.689,0.242-1.017c-0.091-0.221-0.363-0.59-1.166-0.59
			c-2.125,0-2.83-0.147-3.055-0.263c0.216-0.245,1.147-0.812,5.067-0.421c2.649,0.265,5.117,0.742,6.049,0.935L16.791,508.988z"/>
	</g>
</g>
</svg>
