<?xml version="1.0" encoding="utf-8"?>
<!-- Generator: Adobe Illustrator 16.0.0, SVG Export Plug-In . SVG Version: 6.00 Build 0)  -->
<!DOCTYPE svg PUBLIC "-//W3C//DTD SVG 1.1//EN" "http://www.w3.org/Graphics/SVG/1.1/DTD/svg11.dtd">
<svg version="1.1" id="Capa_1" xmlns="http://www.w3.org/2000/svg" xmlns:xlink="http://www.w3.org/1999/xlink" x="0px" y="0px"
	 width="20.375px" height="20.375px" viewBox="0 491.625 20.375 20.375" enable-background="new 0 491.625 20.375 20.375"
	 xml:space="preserve">
<g>
	<g>
		<path fill="#59876A" d="M10.001,491.622C4.487,491.622,0,496.107,0,501.623s4.487,10.002,10.001,10.002
			s10.001-4.486,10.001-10.002S15.516,491.622,10.001,491.622z M10.001,510.957c-5.147,0-9.335-4.187-9.335-9.334
			c0-5.146,4.188-9.334,9.335-9.334s9.335,4.188,9.335,9.334C19.336,506.771,15.149,510.957,10.001,510.957z"/>
		<path fill="#59876A" d="M10.001,493.623c-0.184,0-0.334,0.147-0.334,0.332v7.668h-5c-0.184,0-0.333,0.149-0.333,0.334
			c0,0.184,0.149,0.334,0.333,0.334h5.334c0.184,0,0.334-0.15,0.334-0.334v-8.002C10.335,493.771,10.186,493.623,10.001,493.623z"/>
	</g>
</g>
</svg>
