<?xml version="1.0" encoding="utf-8"?>
<!-- Generator: Adobe Illustrator 16.0.0, SVG Export Plug-In . SVG Version: 6.00 Build 0)  -->
<!DOCTYPE svg PUBLIC "-//W3C//DTD SVG 1.1//EN" "http://www.w3.org/Graphics/SVG/1.1/DTD/svg11.dtd">
<svg version="1.1" id="Capa_1" xmlns="http://www.w3.org/2000/svg" xmlns:xlink="http://www.w3.org/1999/xlink" x="0px" y="0px"
	 width="20px" height="20px" viewBox="0 0 20 20" enable-background="new 0 0 20 20" xml:space="preserve">
<g>
	<g>
		<path fill="#DB0304" d="M17.656,0H2.344C1.051,0,0,1.051,0,2.344v15.312C0,18.949,1.051,20,2.344,20h15.312
			C18.949,20,20,18.949,20,17.656V2.344C20,1.051,18.949,0,17.656,0z M18.438,17.656c0,0.431-0.351,0.781-0.781,0.781h-4.453V12.07
			h2.414l0.398-2.422h-2.812v-1.68c0-0.663,0.509-1.172,1.172-1.172h1.602V4.375h-1.602c-1.989,0-3.593,1.611-3.593,3.601v1.673
			H8.438v2.422h2.345v6.367H2.344c-0.431,0-0.781-0.351-0.781-0.781V2.344c0-0.431,0.351-0.781,0.781-0.781h15.312
			c0.431,0,0.781,0.351,0.781,0.781V17.656z"/>
	</g>
</g>
</svg>
