<?xml version="1.0" encoding="utf-8"?>
<!-- Generator: Adobe Illustrator 16.0.0, SVG Export Plug-In . SVG Version: 6.00 Build 0)  -->
<!DOCTYPE svg PUBLIC "-//W3C//DTD SVG 1.1//EN" "http://www.w3.org/Graphics/SVG/1.1/DTD/svg11.dtd">
<svg version="1.1" id="Layer_1" xmlns="http://www.w3.org/2000/svg" xmlns:xlink="http://www.w3.org/1999/xlink" x="0px" y="0px"
	 width="20px" height="20px" viewBox="0 0 20 20" enable-background="new 0 0 20 20" xml:space="preserve">
<path fill="none" stroke="#DB0304" stroke-width="2" stroke-linecap="round" stroke-linejoin="round" d="M18.334,14.1v2.5
	c0.003,0.921-0.74,1.67-1.66,1.674c-0.053,0-0.105-0.002-0.157-0.007c-2.564-0.278-5.027-1.155-7.191-2.558
	c-2.014-1.28-3.721-2.987-5-5C2.917,8.534,2.04,6.059,1.767,3.483c-0.083-0.917,0.593-1.727,1.51-1.81
	c0.05-0.004,0.099-0.007,0.148-0.007h2.5C6.762,1.658,7.475,2.271,7.592,3.1c0.105,0.8,0.301,1.585,0.583,2.342
	C8.404,6.051,8.257,6.737,7.8,7.2L6.742,8.258c1.186,2.086,2.914,3.814,5,5L12.8,12.2c0.463-0.458,1.149-0.604,1.759-0.375
	c0.756,0.282,1.541,0.478,2.342,0.583C17.738,12.526,18.354,13.254,18.334,14.1z"/>
</svg>
