<?xml version="1.0" encoding="utf-8"?>
<!-- Generator: Adobe Illustrator 16.0.0, SVG Export Plug-In . SVG Version: 6.00 Build 0)  -->
<!DOCTYPE svg PUBLIC "-//W3C//DTD SVG 1.1//EN" "http://www.w3.org/Graphics/SVG/1.1/DTD/svg11.dtd">
<svg version="1.1" id="Capa_1" xmlns="http://www.w3.org/2000/svg" xmlns:xlink="http://www.w3.org/1999/xlink" x="0px" y="0px"
	 width="20.375px" height="20.375px" viewBox="0 491.625 20.375 20.375" enable-background="new 0 491.625 20.375 20.375"
	 xml:space="preserve">
<g display="none">
	<g display="inline">
		<path fill="#DB0304" d="M10.001,491.622C4.487,491.622,0,496.107,0,501.623s4.487,10.002,10.001,10.002
			s10.001-4.486,10.001-10.002S15.516,491.622,10.001,491.622z M10.001,510.957c-5.147,0-9.335-4.187-9.335-9.334
			c0-5.146,4.188-9.334,9.335-9.334s9.335,4.188,9.335,9.334C19.336,506.771,15.149,510.957,10.001,510.957z"/>
		<path fill="#DB0304" d="M10.001,493.623c-0.184,0-0.334,0.147-0.334,0.332v7.668h-5c-0.184,0-0.333,0.149-0.333,0.334
			c0,0.184,0.149,0.334,0.333,0.334h5.334c0.184,0,0.334-0.15,0.334-0.334v-8.002C10.335,493.771,10.186,493.623,10.001,493.623z"/>
	</g>
</g>
<g display="none">
	<g display="inline">
		<path fill="#DB0304" d="M19.365,506.183c-0.051-0.098-0.141-0.166-0.247-0.189c-0.027-0.005-2.178-0.479-4.918-0.859
			c-0.004-0.013-0.007-0.023-0.012-0.037c-1.209-2.82-1.609-2.82-1.824-2.82c-0.259,0-1.548,0.266-2.596,0.49v-2.714
			c0.016,0,0.031-0.001,0.047-0.003c0.359,0.096,0.724,0.143,1.085,0.143c1.097,0,2.165-0.432,2.966-1.233
			c1.112-1.11,1.508-2.733,1.037-4.233c-0.037-0.115-0.127-0.205-0.243-0.242c-1.5-0.473-3.123-0.076-4.234,1.036
			c-0.174,0.173-0.327,0.359-0.464,0.555c-0.139-1.097-0.635-2.138-1.449-2.952c-1.343-1.343-3.304-1.822-5.117-1.252
			c-0.115,0.036-0.206,0.126-0.242,0.241c-0.571,1.814-0.091,3.775,1.252,5.119c0.969,0.969,2.26,1.487,3.584,1.487
			c0.345,0,0.692-0.036,1.036-0.107v4.318c-0.143,0.03-0.271,0.06-0.375,0.083c-0.775-0.15-2.053-0.315-2.482,0.115l-0.68,0.681
			l-1.029,0.342c-1.25,0.417-1.678,2.264-1.726,2.483c-0.424-0.255-0.843-0.562-1.246-0.923c-0.069-0.062-0.157-0.096-0.248-0.096
			c-0.82,0-1.112,0.399-1.112,0.741c0,0.106,0,0.307,0.779,1.211c0.302,0.348,0.936,1.047,1.804,1.804
			c1.335,1.162,3.32,2.547,5.203,2.547c2.169,0,3.719-0.457,4.851-0.79c0.614-0.18,1.098-0.321,1.451-0.321
			c1.13,0,3.306-0.361,3.399-0.378c0.127-0.021,0.235-0.107,0.283-0.227l1.482-3.708C19.423,506.392,19.417,506.278,19.365,506.183z
			 M10.951,496.044c0.869-0.869,2.117-1.208,3.299-0.907c0.3,1.182-0.038,2.431-0.908,3.299c-0.794,0.796-1.907,1.145-2.996,0.969
			c0.301-0.499,0.724-1.072,1.071-1.245c0.183-0.092,0.257-0.314,0.165-0.497c-0.091-0.183-0.314-0.258-0.497-0.166
			c-0.433,0.216-0.841,0.714-1.145,1.163C9.893,497.696,10.248,496.747,10.951,496.044z M7.338,495.911
			c0.973,0.647,1.324,1.985,1.329,2.007c0.001,0.001,0.001,0.002,0.001,0.002c-1.358,0.215-2.745-0.223-3.738-1.215
			c-1.101-1.101-1.522-2.688-1.123-4.183c1.494-0.397,3.081,0.023,4.182,1.124c0.961,0.961,1.404,2.291,1.236,3.608
			c-0.214-0.544-0.664-1.419-1.475-1.961c-0.171-0.114-0.4-0.067-0.515,0.104C7.122,495.567,7.168,495.798,7.338,495.911z
			 M3.458,506.8c0.091-0.459,0.492-1.697,1.237-1.946l1.112-0.37c0.054-0.02,0.104-0.05,0.145-0.091l0.735-0.735
			c0.182-0.112,1.081-0.066,1.896,0.096c0.051,0.011,0.102,0.009,0.153-0.001c1.474-0.328,3.11-0.67,3.542-0.726
			c0.214,0.236,0.677,1.129,1.066,1.996c-0.43-0.054-0.87-0.104-1.315-0.147c-3.684-0.369-5.804-0.051-6.301,0.943
			c-0.1,0.2-0.094,0.418,0.018,0.597c0.307,0.497,1.396,0.682,4.021,0.682c0.373,0,0.547,0.099,0.582,0.183
			c0.031,0.075-0.007,0.194-0.091,0.286c-0.19,0.112-1.439,0.473-3.24,0.359c-1.014-0.065-2.335-0.295-3.654-0.947
			C3.411,506.929,3.444,506.868,3.458,506.8z M17.289,509.731c-0.572,0.089-2.195,0.331-3.072,0.331
			c-0.459,0-0.989,0.156-1.66,0.354c-1.089,0.319-2.581,0.76-4.643,0.76c-1.604,0-3.371-1.221-4.572-2.243
			c-1.278-1.088-2.148-2.146-2.41-2.537c0.051-0.012,0.114-0.024,0.178-0.033c2.018,1.754,4.368,2.226,5.998,2.309
			c1.684,0.087,3.323-0.23,3.664-0.571c0.306-0.306,0.411-0.749,0.264-1.104c-0.099-0.24-0.395-0.641-1.267-0.641
			c-2.31,0-3.075-0.161-3.319-0.286c0.235-0.267,1.247-0.883,5.507-0.457c2.879,0.287,5.561,0.806,6.574,1.016L17.289,509.731z"/>
	</g>
</g>
<g>
	<g>
		<path fill="#DB0304" d="M10.148,496.254c-1.288,0-2.336,1.049-2.336,2.338c0,1.286,1.048,2.335,2.336,2.335
			c1.288,0,2.336-1.049,2.336-2.335C12.484,497.303,11.436,496.254,10.148,496.254z M10.148,500.26c-0.92,0-1.669-0.749-1.669-1.668
			c0-0.921,0.749-1.669,1.669-1.669c0.92,0,1.668,0.748,1.668,1.669C11.817,499.511,11.068,500.26,10.148,500.26z"/>
		<path fill="#DB0304" d="M14.614,494.125c-1.209-1.21-2.816-1.875-4.525-1.875c-1.709,0-3.316,0.665-4.525,1.875
			c-2.237,2.236-2.515,6.444-0.603,8.994l5.127,7.404l5.12-7.395C17.129,500.569,16.852,496.361,14.614,494.125z M14.667,502.739
			l-4.579,6.612l-4.585-6.623c-1.735-2.313-1.486-6.113,0.533-8.132c1.083-1.083,2.522-1.679,4.053-1.679
			c1.531,0,2.971,0.596,4.054,1.679C16.162,496.615,16.41,500.415,14.667,502.739z"/>
	</g>
	<g>
	</g>
	<g>
	</g>
	<g>
	</g>
	<g>
	</g>
	<g>
	</g>
	<g>
	</g>
	<g>
	</g>
	<g>
	</g>
	<g>
	</g>
	<g>
	</g>
	<g>
	</g>
	<g>
	</g>
	<g>
	</g>
	<g>
	</g>
	<g>
	</g>
</g>
</svg>
