<?xml version="1.0" encoding="utf-8"?>
<!-- Generator: Adobe Illustrator 16.0.0, SVG Export Plug-In . SVG Version: 6.00 Build 0)  -->
<!DOCTYPE svg PUBLIC "-//W3C//DTD SVG 1.1//EN" "http://www.w3.org/Graphics/SVG/1.1/DTD/svg11.dtd">
<svg version="1.1" id="Capa_1" xmlns="http://www.w3.org/2000/svg" xmlns:xlink="http://www.w3.org/1999/xlink" x="0px" y="0px"
	 width="20px" height="20px" viewBox="0 0 20 20" enable-background="new 0 0 20 20" xml:space="preserve">
<g display="none">
	<g display="inline">
		<path fill="#DB0304" d="M17.656,0H2.344C1.051,0,0,1.051,0,2.344v15.312C0,18.949,1.051,20,2.344,20h15.312
			C18.949,20,20,18.949,20,17.656V2.344C20,1.051,18.949,0,17.656,0z M18.438,17.656c0,0.431-0.351,0.781-0.781,0.781h-4.453V12.07
			h2.414l0.398-2.422h-2.812v-1.68c0-0.663,0.509-1.172,1.172-1.172h1.602V4.375h-1.602c-1.989,0-3.593,1.611-3.593,3.601v1.673
			H8.438v2.422h2.345v6.367H2.344c-0.431,0-0.781-0.351-0.781-0.781V2.344c0-0.431,0.351-0.781,0.781-0.781h15.312
			c0.431,0,0.781,0.351,0.781,0.781V17.656z"/>
	</g>
</g>
<g display="none">
	<path display="inline" fill="none" stroke="#DB0304" stroke-width="2" stroke-linecap="round" stroke-linejoin="round" d="
		M19,14.158v2.665c0.003,0.982-0.789,1.78-1.77,1.784c-0.057,0-0.112-0.002-0.168-0.006c-2.732-0.297-5.357-1.233-7.665-2.728
		c-2.148-1.364-3.967-3.184-5.331-5.33C2.565,8.226,1.63,5.587,1.339,2.841C1.251,1.863,1.971,1,2.949,0.911
		c0.054-0.004,0.105-0.007,0.158-0.007h2.665c0.893-0.009,1.652,0.645,1.777,1.528C7.66,3.285,7.87,4.123,8.17,4.929
		c0.244,0.649,0.087,1.38-0.4,1.874L6.643,7.931c1.265,2.224,3.107,4.066,5.331,5.33l1.127-1.127c0.493-0.488,1.226-0.645,1.875-0.4
		c0.806,0.301,1.643,0.51,2.496,0.622C18.364,12.48,19.021,13.257,19,14.158z"/>
</g>
<g display="none">
	<g>
		<g display="inline">
			<path fill="#DB0304" d="M9.114,0.011C4.156,0.246,0.243,4.376,0.258,9.34c0.004,1.511,0.369,2.939,1.014,4.201L0.283,18.34
				c-0.054,0.26,0.18,0.486,0.438,0.426l4.704-1.115c1.208,0.604,2.565,0.951,4.001,0.973c5.067,0.078,9.294-3.947,9.453-9.014
				C19.047,4.179,14.565-0.249,9.114,0.011z M14.727,14.467c-1.379,1.377-3.209,2.137-5.157,2.137c-1.14,0-2.232-0.256-3.245-0.762
				L5.67,15.516l-2.884,0.684l0.607-2.945l-0.323-0.633c-0.526-1.029-0.792-2.143-0.792-3.309c0-1.949,0.758-3.779,2.136-5.157
				C5.779,2.79,7.64,2.019,9.57,2.019c1.948,0,3.778,0.759,5.157,2.136c1.375,1.378,2.134,3.208,2.135,5.155
				C16.861,11.242,16.091,13.102,14.727,14.467z"/>
			<path fill="#DB0304" d="M14.089,11.33l-1.804-0.518c-0.238-0.068-0.492,0-0.666,0.176l-0.44,0.447
				c-0.187,0.191-0.469,0.252-0.715,0.152c-0.853-0.346-2.648-1.942-3.106-2.74C7.225,8.617,7.247,8.33,7.409,8.12l0.385-0.498
				c0.152-0.195,0.184-0.457,0.083-0.683L7.119,5.222C6.937,4.811,6.412,4.69,6.068,4.981c-0.503,0.426-1.101,1.074-1.174,1.79
				c-0.128,1.264,0.414,2.856,2.463,4.771c2.368,2.211,4.264,2.502,5.499,2.203c0.7-0.17,1.259-0.85,1.613-1.406
				C14.712,11.959,14.521,11.455,14.089,11.33z"/>
		</g>
	</g>
	<g display="inline">
		<g>
			<g>
				<path fill="#DB0304" d="M18.088,2.855H1.968c-0.946,0-1.718,0.698-1.718,1.557v10.385c0,0.855,0.769,1.559,1.718,1.559h16.12
					c0.945,0,1.719-0.697,1.719-1.559V4.412C19.807,3.556,19.039,2.855,18.088,2.855z M17.852,3.893l-7.787,7.057L2.211,3.893
					H17.852z M1.395,14.582V4.623l5.52,4.959L1.395,14.582z M2.206,15.316l5.522-5.004l1.936,1.741
					c0.224,0.199,0.585,0.199,0.809-0.002l1.887-1.71l5.492,4.978H2.206V15.316z M18.661,14.582l-5.492-4.977l5.492-4.979V14.582z"
					/>
			</g>
		</g>
	</g>
</g>
<g>
	<g>
		<g>
			<path fill="#DB0304" d="M13.75,0h-7.5C2.799,0,0,2.799,0,6.25v7.5C0,17.201,2.799,20,6.25,20h7.5c3.451,0,6.25-2.799,6.25-6.25
				v-7.5C20,2.799,17.201,0,13.75,0z M18.125,13.75c0,2.412-1.963,4.375-4.375,4.375h-7.5c-2.413,0-4.375-1.963-4.375-4.375v-7.5
				c0-2.413,1.962-4.375,4.375-4.375h7.5c2.412,0,4.375,1.962,4.375,4.375V13.75z"/>
		</g>
	</g>
	<g>
		<g>
			<path fill="#DB0304" d="M10,5c-2.761,0-5,2.239-5,5c0,2.762,2.239,5,5,5c2.762,0,5-2.238,5-5C15,7.239,12.762,5,10,5z M10,13.125
				c-1.723,0-3.125-1.402-3.125-3.125c0-1.724,1.402-3.125,3.125-3.125S13.125,8.276,13.125,10
				C13.125,11.723,11.723,13.125,10,13.125z"/>
		</g>
	</g>
	<g>
		<g>
			<circle fill="#DB0304" cx="15.375" cy="4.625" r="0.666"/>
		</g>
	</g>
	<g>
	</g>
	<g>
	</g>
	<g>
	</g>
	<g>
	</g>
	<g>
	</g>
	<g>
	</g>
	<g>
	</g>
	<g>
	</g>
	<g>
	</g>
	<g>
	</g>
	<g>
	</g>
	<g>
	</g>
	<g>
	</g>
	<g>
	</g>
	<g>
	</g>
</g>
</svg>
