<?xml version="1.0" encoding="utf-8"?>
<!-- Generator: Adobe Illustrator 16.0.0, SVG Export Plug-In . SVG Version: 6.00 Build 0)  -->
<!DOCTYPE svg PUBLIC "-//W3C//DTD SVG 1.1//EN" "http://www.w3.org/Graphics/SVG/1.1/DTD/svg11.dtd">
<svg version="1.1" id="Capa_1" xmlns="http://www.w3.org/2000/svg" xmlns:xlink="http://www.w3.org/1999/xlink" x="0px" y="0px"
	 width="20px" height="20px" viewBox="0 0 20 20" enable-background="new 0 0 20 20" xml:space="preserve">
<g display="none">
	<g display="inline">
		<path fill="#DB0304" d="M17.656,0H2.344C1.051,0,0,1.051,0,2.344v15.312C0,18.949,1.051,20,2.344,20h15.312
			C18.949,20,20,18.949,20,17.656V2.344C20,1.051,18.949,0,17.656,0z M18.438,17.656c0,0.431-0.351,0.781-0.781,0.781h-4.453V12.07
			h2.414l0.398-2.422h-2.812v-1.68c0-0.663,0.509-1.172,1.172-1.172h1.602V4.375h-1.602c-1.989,0-3.593,1.611-3.593,3.601v1.673
			H8.438v2.422h2.345v6.367H2.344c-0.431,0-0.781-0.351-0.781-0.781V2.344c0-0.431,0.351-0.781,0.781-0.781h15.312
			c0.431,0,0.781,0.351,0.781,0.781V17.656z"/>
	</g>
</g>
<g>
	<path fill="none" stroke="#DB0304" stroke-width="2" stroke-linecap="round" stroke-linejoin="round" d="M19,14.158v2.665
		c0.003,0.982-0.789,1.78-1.77,1.784c-0.057,0-0.112-0.002-0.168-0.006c-2.732-0.297-5.357-1.233-7.665-2.728
		c-2.148-1.364-3.967-3.184-5.331-5.33C2.565,8.226,1.63,5.587,1.339,2.841C1.251,1.863,1.971,1,2.949,0.911
		c0.054-0.004,0.105-0.007,0.158-0.007h2.665c0.893-0.009,1.652,0.645,1.777,1.528C7.66,3.285,7.87,4.123,8.17,4.929
		c0.244,0.649,0.087,1.38-0.4,1.874L6.643,7.931c1.265,2.224,3.107,4.066,5.331,5.33l1.127-1.127c0.493-0.488,1.226-0.645,1.875-0.4
		c0.806,0.301,1.643,0.51,2.496,0.622C18.364,12.48,19.021,13.257,19,14.158z"/>
</g>
<g display="none">
	<g>
		<g display="inline">
			<path fill="#DB0304" d="M9.114-1.096C4.156-0.832,0.243,3.812,0.258,9.393c0.004,1.699,0.369,3.304,1.014,4.723l-0.988,5.396
				c-0.054,0.292,0.18,0.546,0.438,0.479l4.704-1.254c1.208,0.679,2.565,1.069,4.001,1.094c5.067,0.088,9.294-4.438,9.453-10.135
				C19.047,3.589,14.565-1.388,9.114-1.096z M14.727,15.156c-1.379,1.548-3.209,2.402-5.157,2.402c-1.14,0-2.232-0.288-3.245-0.856
				L5.67,16.335l-2.884,0.769l0.607-3.312l-0.323-0.711c-0.526-1.157-0.792-2.409-0.792-3.72c0-2.191,0.758-4.25,2.136-5.799
				C5.779,2.028,7.64,1.162,9.57,1.162c1.948,0,3.778,0.854,5.157,2.401c1.375,1.549,2.134,3.607,2.135,5.796
				C16.861,11.531,16.091,13.621,14.727,15.156z"/>
			<path fill="#DB0304" d="M14.089,11.629l-1.804-0.581c-0.238-0.077-0.492,0-0.666,0.197l-0.44,0.503
				c-0.187,0.215-0.469,0.283-0.715,0.171c-0.853-0.388-2.648-2.183-3.106-3.08C7.225,8.579,7.247,8.257,7.409,8.02l0.385-0.56
				c0.152-0.22,0.184-0.514,0.083-0.768l-0.759-1.93C6.937,4.3,6.412,4.165,6.068,4.492C5.565,4.971,4.968,5.699,4.895,6.503
				c-0.128,1.421,0.414,3.211,2.463,5.364c2.368,2.485,4.264,2.812,5.499,2.477c0.7-0.191,1.259-0.955,1.613-1.581
				C14.712,12.337,14.521,11.771,14.089,11.629z"/>
		</g>
	</g>
	<g display="inline">
		<g>
			<g>
				<path fill="#DB0304" d="M18.088,2.102H1.968c-0.946,0-1.718,0.784-1.718,1.75v11.675c0,0.962,0.769,1.752,1.718,1.752h16.12
					c0.945,0,1.719-0.784,1.719-1.752V3.852C19.807,2.89,19.039,2.102,18.088,2.102z M17.852,3.268l-7.787,7.933L2.211,3.268H17.852
					z M1.395,15.285V4.088l5.52,5.576L1.395,15.285z M2.206,16.111l5.522-5.627l1.936,1.958c0.224,0.224,0.585,0.224,0.809-0.003
					l1.887-1.923l5.492,5.597H2.206V16.111z M18.661,15.285l-5.492-5.596l5.492-5.597V15.285z"/>
			</g>
		</g>
	</g>
</g>
<g display="none">
	<g display="inline">
		<g>
			<path fill="#DB0304" d="M13.75,0h-7.5C2.799,0,0,2.799,0,6.25v7.5C0,17.201,2.799,20,6.25,20h7.5c3.451,0,6.25-2.799,6.25-6.25
				v-7.5C20,2.799,17.201,0,13.75,0z M18.125,13.75c0,2.412-1.963,4.375-4.375,4.375h-7.5c-2.413,0-4.375-1.963-4.375-4.375v-7.5
				c0-2.413,1.962-4.375,4.375-4.375h7.5c2.412,0,4.375,1.962,4.375,4.375V13.75z"/>
		</g>
	</g>
	<g display="inline">
		<g>
			<path fill="#DB0304" d="M10,5c-2.761,0-5,2.239-5,5c0,2.762,2.239,5,5,5c2.762,0,5-2.238,5-5C15,7.239,12.762,5,10,5z M10,13.125
				c-1.723,0-3.125-1.402-3.125-3.125c0-1.724,1.402-3.125,3.125-3.125S13.125,8.276,13.125,10
				C13.125,11.723,11.723,13.125,10,13.125z"/>
		</g>
	</g>
	<g display="inline">
		<g>
			<circle fill="#DB0304" cx="15.375" cy="4.625" r="0.666"/>
		</g>
	</g>
	<g display="inline">
	</g>
	<g display="inline">
	</g>
	<g display="inline">
	</g>
	<g display="inline">
	</g>
	<g display="inline">
	</g>
	<g display="inline">
	</g>
	<g display="inline">
	</g>
	<g display="inline">
	</g>
	<g display="inline">
	</g>
	<g display="inline">
	</g>
	<g display="inline">
	</g>
	<g display="inline">
	</g>
	<g display="inline">
	</g>
	<g display="inline">
	</g>
	<g display="inline">
	</g>
</g>
</svg>
