<?xml version="1.0" encoding="utf-8"?>
<!-- Generator: Adobe Illustrator 16.0.0, SVG Export Plug-In . SVG Version: 6.00 Build 0)  -->
<!DOCTYPE svg PUBLIC "-//W3C//DTD SVG 1.1//EN" "http://www.w3.org/Graphics/SVG/1.1/DTD/svg11.dtd">
<svg version="1.1" id="Capa_1" xmlns="http://www.w3.org/2000/svg" xmlns:xlink="http://www.w3.org/1999/xlink" x="0px" y="0px"
	 width="20.375px" height="20.375px" viewBox="0 491.625 20.375 20.375" enable-background="new 0 491.625 20.375 20.375"
	 xml:space="preserve">
<g display="none">
	<g display="inline">
		<path fill="#59876A" d="M10.001,491.622C4.487,491.622,0,496.107,0,501.623s4.487,10.002,10.001,10.002
			s10.001-4.486,10.001-10.002S15.516,491.622,10.001,491.622z M10.001,510.957c-5.147,0-9.335-4.187-9.335-9.334
			c0-5.146,4.188-9.334,9.335-9.334s9.335,4.188,9.335,9.334C19.336,506.771,15.149,510.957,10.001,510.957z"/>
		<path fill="#59876A" d="M10.001,493.623c-0.184,0-0.334,0.147-0.334,0.332v7.668h-5c-0.184,0-0.333,0.149-0.333,0.334
			c0,0.184,0.149,0.334,0.333,0.334h5.334c0.184,0,0.334-0.15,0.334-0.334v-8.002C10.335,493.771,10.186,493.623,10.001,493.623z"/>
	</g>
</g>
<g display="none">
	<g display="inline">
		<path fill="#FFFFFF" d="M19.365,506.183c-0.051-0.098-0.141-0.166-0.247-0.189c-0.027-0.005-2.178-0.479-4.918-0.859
			c-0.004-0.013-0.007-0.023-0.012-0.037c-1.209-2.82-1.609-2.82-1.824-2.82c-0.259,0-1.548,0.266-2.596,0.49v-2.714
			c0.016,0,0.031-0.001,0.047-0.003c0.359,0.096,0.724,0.143,1.085,0.143c1.097,0,2.165-0.432,2.966-1.233
			c1.112-1.11,1.508-2.733,1.037-4.233c-0.037-0.115-0.127-0.205-0.243-0.242c-1.5-0.473-3.123-0.076-4.234,1.036
			c-0.174,0.173-0.327,0.359-0.464,0.555c-0.139-1.097-0.635-2.138-1.449-2.952c-1.343-1.343-3.304-1.822-5.117-1.252
			c-0.115,0.036-0.206,0.126-0.242,0.241c-0.571,1.814-0.091,3.775,1.252,5.119c0.969,0.969,2.26,1.487,3.584,1.487
			c0.345,0,0.692-0.036,1.036-0.107v4.318c-0.143,0.03-0.271,0.06-0.375,0.083c-0.775-0.15-2.053-0.315-2.482,0.115l-0.68,0.681
			l-1.029,0.342c-1.25,0.417-1.678,2.264-1.726,2.483c-0.424-0.255-0.843-0.562-1.246-0.923c-0.069-0.062-0.157-0.096-0.248-0.096
			c-0.82,0-1.112,0.399-1.112,0.741c0,0.106,0,0.307,0.779,1.211c0.302,0.348,0.936,1.047,1.804,1.804
			c1.335,1.162,3.32,2.547,5.203,2.547c2.169,0,3.719-0.457,4.851-0.79c0.614-0.18,1.098-0.321,1.451-0.321
			c1.13,0,3.306-0.361,3.399-0.378c0.127-0.021,0.235-0.107,0.283-0.227l1.482-3.708C19.423,506.392,19.417,506.278,19.365,506.183z
			 M10.951,496.044c0.869-0.869,2.117-1.208,3.299-0.907c0.3,1.182-0.038,2.431-0.908,3.299c-0.794,0.796-1.907,1.145-2.996,0.969
			c0.301-0.499,0.724-1.072,1.071-1.245c0.183-0.092,0.257-0.314,0.165-0.497c-0.091-0.183-0.314-0.258-0.497-0.166
			c-0.433,0.216-0.841,0.714-1.145,1.163C9.893,497.696,10.248,496.747,10.951,496.044z M7.338,495.911
			c0.973,0.647,1.324,1.985,1.329,2.007c0.001,0.001,0.001,0.002,0.001,0.002c-1.358,0.215-2.745-0.223-3.738-1.215
			c-1.101-1.101-1.522-2.688-1.123-4.183c1.494-0.397,3.081,0.023,4.182,1.124c0.961,0.961,1.404,2.291,1.236,3.608
			c-0.214-0.544-0.664-1.419-1.475-1.961c-0.171-0.114-0.4-0.067-0.515,0.104C7.122,495.567,7.168,495.798,7.338,495.911z
			 M3.458,506.8c0.091-0.459,0.492-1.697,1.237-1.946l1.112-0.37c0.054-0.02,0.104-0.05,0.145-0.091l0.735-0.735
			c0.182-0.112,1.081-0.066,1.896,0.096c0.051,0.011,0.102,0.009,0.153-0.001c1.474-0.328,3.11-0.67,3.542-0.726
			c0.214,0.236,0.677,1.129,1.066,1.996c-0.43-0.054-0.87-0.104-1.315-0.147c-3.684-0.369-5.804-0.051-6.301,0.943
			c-0.1,0.2-0.094,0.418,0.018,0.597c0.307,0.497,1.396,0.682,4.021,0.682c0.373,0,0.547,0.099,0.582,0.183
			c0.031,0.075-0.007,0.194-0.091,0.286c-0.19,0.112-1.439,0.473-3.24,0.359c-1.014-0.065-2.335-0.295-3.654-0.947
			C3.411,506.929,3.444,506.868,3.458,506.8z M17.289,509.731c-0.572,0.089-2.195,0.331-3.072,0.331
			c-0.459,0-0.989,0.156-1.66,0.354c-1.089,0.319-2.581,0.76-4.643,0.76c-1.604,0-3.371-1.221-4.572-2.243
			c-1.278-1.088-2.148-2.146-2.41-2.537c0.051-0.012,0.114-0.024,0.178-0.033c2.018,1.754,4.368,2.226,5.998,2.309
			c1.684,0.087,3.323-0.23,3.664-0.571c0.306-0.306,0.411-0.749,0.264-1.104c-0.099-0.24-0.395-0.641-1.267-0.641
			c-2.31,0-3.075-0.161-3.319-0.286c0.235-0.267,1.247-0.883,5.507-0.457c2.879,0.287,5.561,0.806,6.574,1.016L17.289,509.731z"/>
	</g>
</g>
<g display="none">
	<g display="inline">
		<path fill="#FFFFFF" d="M10.148,496.254c-1.288,0-2.336,1.049-2.336,2.338c0,1.286,1.048,2.335,2.336,2.335
			c1.288,0,2.336-1.049,2.336-2.335C12.484,497.303,11.436,496.254,10.148,496.254z M10.148,500.26c-0.92,0-1.669-0.749-1.669-1.668
			c0-0.921,0.749-1.669,1.669-1.669c0.92,0,1.668,0.748,1.668,1.669C11.817,499.511,11.068,500.26,10.148,500.26z"/>
		<path fill="#FFFFFF" d="M14.614,494.125c-1.209-1.21-2.816-1.875-4.525-1.875c-1.709,0-3.316,0.665-4.525,1.875
			c-2.237,2.236-2.515,6.444-0.603,8.994l5.127,7.404l5.12-7.395C17.129,500.569,16.852,496.361,14.614,494.125z M14.667,502.739
			l-4.579,6.612l-4.585-6.623c-1.735-2.313-1.486-6.113,0.533-8.132c1.083-1.083,2.522-1.679,4.053-1.679
			c1.531,0,2.971,0.596,4.054,1.679C16.162,496.615,16.41,500.415,14.667,502.739z"/>
	</g>
	<g display="inline">
	</g>
	<g display="inline">
	</g>
	<g display="inline">
	</g>
	<g display="inline">
	</g>
	<g display="inline">
	</g>
	<g display="inline">
	</g>
	<g display="inline">
	</g>
	<g display="inline">
	</g>
	<g display="inline">
	</g>
	<g display="inline">
	</g>
	<g display="inline">
	</g>
	<g display="inline">
	</g>
	<g display="inline">
	</g>
	<g display="inline">
	</g>
	<g display="inline">
	</g>
</g>
<g display="none">
	<g display="inline">
		<g>
			<g>
				<path fill="#FFFFFF" d="M19.29,507.093l-2.817-2.817c-0.561-0.559-1.49-0.542-2.071,0.039l-1.419,1.419
					c-0.089-0.05-0.182-0.101-0.28-0.156c-0.896-0.496-2.123-1.177-3.414-2.469c-1.294-1.294-1.976-2.523-2.474-3.42
					c-0.052-0.095-0.103-0.187-0.152-0.273l0.953-0.951l0.468-0.469c0.582-0.582,0.598-1.511,0.038-2.071l-2.817-2.818
					c-0.56-0.56-1.49-0.543-2.071,0.039l-0.794,0.799l0.021,0.021c-0.266,0.34-0.488,0.731-0.654,1.154
					c-0.152,0.401-0.248,0.785-0.291,1.17c-0.372,3.084,1.037,5.902,4.862,9.728c5.287,5.286,9.547,4.887,9.731,4.867
					c0.4-0.048,0.784-0.144,1.174-0.295c0.419-0.164,0.81-0.386,1.15-0.651l0.017,0.016l0.805-0.788
					C19.832,508.583,19.849,507.654,19.29,507.093z"/>
			</g>
		</g>
	</g>
	<g display="inline">
	</g>
	<g display="inline">
	</g>
	<g display="inline">
	</g>
	<g display="inline">
	</g>
	<g display="inline">
	</g>
	<g display="inline">
	</g>
	<g display="inline">
	</g>
	<g display="inline">
	</g>
	<g display="inline">
	</g>
	<g display="inline">
	</g>
	<g display="inline">
	</g>
	<g display="inline">
	</g>
	<g display="inline">
	</g>
	<g display="inline">
	</g>
	<g display="inline">
	</g>
</g>
<path display="none" fill="#FFFFFF" d="M9.117,508.954c0-2.516,0-7.062,0-9.701c0-0.657-0.155-1.271-0.478-1.848
	c-0.821-1.466-2.554-2.136-4.149-1.649c-0.831,0.252-1.483,0.768-1.961,1.491c-0.131,0.198-0.221,0.424-0.346,0.668
	c0.212-0.03,0.362-0.048,0.511-0.075c1.069-0.188,2.082-0.002,2.995,0.562c1.441,0.89,2.209,2.183,2.203,3.913
	c-0.005,1.411-0.005,3.093-0.004,4.662h0.511L9.117,508.954z"/>
<path display="none" fill="#FFFFFF" d="M6.865,506.978c0-1.594,0-3.357,0.003-4.596c0.001-0.585-0.1-1.141-0.37-1.664
	c-0.521-1.01-1.352-1.637-2.455-1.842c-1.048-0.196-2.021,0.049-2.855,0.74c-0.629,0.522-1.016,1.192-1.188,2.008
	c0.042-0.019,0.075-0.023,0.09-0.043c0.412-0.496,0.935-0.82,1.55-1.004c0.694-0.207,1.384-0.188,2.058,0.07
	c1.273,0.488,2.203,1.846,2.185,3.266C5.867,505.162,5.867,507,5.87,508.47l0.543-1.492H6.865z"/>
<path display="none" fill="#FFFFFF" d="M11.35,507.067c0.002-1.594,0.002-3.313-0.004-4.752c-0.007-1.73,0.761-3.023,2.203-3.913
	c0.913-0.564,1.926-0.751,2.995-0.562c0.149,0.027,0.299,0.045,0.511,0.075c-0.125-0.244-0.214-0.47-0.346-0.668
	c-0.478-0.724-1.13-1.239-1.961-1.491c-1.596-0.486-3.328,0.184-4.149,1.649c-0.322,0.576-0.478,1.19-0.478,1.848
	c0,2.351,0,6.211,0,8.805c0.095-0.143,0.205-0.279,0.33-0.405C10.714,507.388,11.018,507.191,11.35,507.067z"/>
<path display="none" fill="#FFFFFF" d="M13.354,503.913c-0.018-1.42,0.912-2.777,2.185-3.266c0.674-0.259,1.364-0.277,2.058-0.07
	c0.615,0.184,1.138,0.508,1.55,1.004c0.016,0.02,0.048,0.024,0.09,0.043c-0.172-0.815-0.559-1.485-1.188-2.008
	c-0.834-0.691-1.808-0.937-2.855-0.74c-1.103,0.205-1.934,0.832-2.455,1.842c-0.27,0.523-0.371,1.079-0.37,1.664
	c0.002,1.222,0.003,2.954,0.003,4.53c0.355,0.017,0.69,0.104,0.997,0.259C13.369,506.018,13.366,504.813,13.354,503.913z"/>
<path display="none" fill="#FFFFFF" d="M9.621,496.938c0.676-1.156,1.634-1.887,2.909-2.242c-0.925-1.057-2.067-1.489-3.414-1.33
	c-0.96,0.112-1.759,0.568-2.397,1.332C7.992,495.054,8.944,495.783,9.621,496.938z"/>
<g>
	<g>
		<g>
			<path fill="#FFFFFF" d="M5.858,506.419c-0.091-0.998-0.551-1.729-1.017-2.478c-0.922-1.462-1.898-3.011,0.305-6.978
				c0.08-0.151,0.022-0.339-0.129-0.419c-0.149-0.083-0.338-0.029-0.422,0.12l0,0c-2.382,4.286-1.305,5.992-0.288,7.607
				c0.432,0.678,0.847,1.355,0.932,2.202c0.015,0.171,0.167,0.298,0.337,0.282C5.748,506.741,5.874,506.59,5.858,506.419z"/>
		</g>
	</g>
	<g>
		<g>
			<path fill="#FFFFFF" d="M13.345,496.976c-0.099,0.271-0.238,0.526-0.414,0.756c-0.309,0.416-0.758,0.707-1.264,0.818
				c-0.539,0.117-1.186,0.044-1.925-0.29c-1.069-0.482-2.315-1.496-3.684-3.24c0.779-0.079,2.164-0.33,3.196-1.114
				c0.873-0.665,1.661-0.909,2.313-0.848c0.28,0.022,0.553,0.106,0.796,0.246c0.241,0.14,0.452,0.326,0.619,0.549
				c0.268,0.365,0.446,0.788,0.519,1.235c0.221,0.042,0.439,0.098,0.652,0.169c-0.06-0.646-0.294-1.264-0.678-1.788
				c-0.219-0.289-0.494-0.532-0.808-0.713c-0.324-0.185-0.684-0.296-1.056-0.325c-0.796-0.066-1.731,0.214-2.74,0.98
				c-1.264,0.961-3.167,1.018-3.401,1.018c-0.172-0.012-0.32,0.119-0.332,0.29c-0.005,0.074,0.016,0.147,0.06,0.206
				c1.586,2.12,3.039,3.33,4.286,3.897c0.871,0.392,1.649,0.475,2.312,0.339c0.653-0.143,1.231-0.519,1.628-1.056
				c0.208-0.275,0.375-0.581,0.493-0.906l-0.049-0.023C13.7,497.095,13.525,497.027,13.345,496.976z"/>
		</g>
	</g>
	<g>
		<g>
			<path fill="#FFFFFF" d="M17.843,499.658c-2.525-4.208-4.542-4.13-6.448-4.056c-0.81,0.032-1.598,0.062-2.372-0.295
				c-0.162-0.056-0.339,0.029-0.395,0.19c-0.049,0.14,0.007,0.294,0.134,0.369c0.91,0.418,1.771,0.386,2.656,0.351
				c1.728-0.061,3.559-0.132,5.892,3.759c0.088,0.147,0.279,0.195,0.426,0.107S17.931,499.806,17.843,499.658z"/>
		</g>
	</g>
	<g>
		<g>
			<path fill="#FFFFFF" d="M8.053,504.314c-0.095-0.949-0.414-1.664-0.87-2.167c-0.449-0.493-1.061-0.808-1.723-0.885
				c-0.343-0.043-0.69-0.034-1.03,0.025c0,0.019,0,0.035,0,0.055c0.015,0.188,0.045,0.375,0.091,0.559
				c0.284-0.051,0.573-0.059,0.859-0.023c0.514,0.058,0.99,0.298,1.34,0.678c0.369,0.408,0.63,1.005,0.711,1.812
				c0.117,1.166-0.137,2.75-0.959,4.815c-0.459-0.637-1.369-1.711-2.564-2.213c-1.017-0.425-1.618-0.982-1.896-1.574
				c-0.122-0.251-0.188-0.525-0.191-0.805c0.001-0.279,0.059-0.556,0.169-0.812c0.182-0.415,0.459-0.78,0.81-1.067
				c-0.071-0.214-0.128-0.433-0.169-0.654c-0.53,0.374-0.949,0.887-1.21,1.48c-0.142,0.333-0.215,0.691-0.215,1.053
				c0.001,0.373,0.085,0.741,0.246,1.077c0.339,0.724,1.052,1.396,2.218,1.885c1.556,0.651,2.589,2.432,2.6,2.45
				c0.084,0.149,0.274,0.201,0.423,0.116c0.06-0.033,0.106-0.086,0.133-0.149C7.868,507.538,8.19,505.675,8.053,504.314z"/>
		</g>
	</g>
	<g>
		<g>
			<path fill="#FFFFFF" d="M16.876,503.737c-0.099-0.14-0.293-0.174-0.433-0.075c-0.818,0.578-1.22,1.342-1.634,2.127
				c-0.806,1.524-1.659,3.15-6.195,3.22c-0.171,0.002-0.308,0.144-0.305,0.314c0.002,0.172,0.144,0.309,0.315,0.306
				c4.906-0.081,5.846-1.864,6.736-3.559c0.376-0.714,0.744-1.412,1.44-1.899C16.941,504.071,16.975,503.878,16.876,503.737z"/>
		</g>
	</g>
	<g>
		<g>
			<path fill="#FFFFFF" d="M19.218,501.076c-0.058-0.033-0.125-0.047-0.19-0.039l0.008,0.009c-2.628,0.312-4.402,0.966-5.521,1.77
				c-0.774,0.557-1.235,1.186-1.442,1.835c-0.202,0.635-0.169,1.321,0.095,1.934c0.135,0.318,0.316,0.614,0.539,0.879l0.044-0.03
				c0.156-0.107,0.303-0.228,0.439-0.359c-0.186-0.219-0.337-0.465-0.449-0.729c-0.206-0.478-0.232-1.013-0.073-1.508
				c0.169-0.526,0.554-1.048,1.213-1.525c0.95-0.678,2.448-1.256,4.648-1.576c-0.32,0.717-0.796,2.033-0.632,3.324
				c0.139,1.09-0.042,1.894-0.417,2.433c-0.159,0.23-0.368,0.424-0.61,0.565c-0.242,0.14-0.51,0.228-0.787,0.262
				c-0.451,0.049-0.906-0.009-1.33-0.17c-0.149,0.17-0.309,0.328-0.48,0.477c0.59,0.271,1.241,0.377,1.886,0.307
				c0.358-0.044,0.704-0.159,1.017-0.339c0.322-0.188,0.599-0.445,0.81-0.753c0.456-0.657,0.678-1.606,0.521-2.862
				c-0.213-1.678,0.822-3.472,0.826-3.477C19.419,501.352,19.367,501.161,19.218,501.076z"/>
		</g>
	</g>
	<g>
	</g>
	<g>
	</g>
	<g>
	</g>
	<g>
	</g>
	<g>
	</g>
	<g>
	</g>
	<g>
	</g>
	<g>
	</g>
	<g>
	</g>
	<g>
	</g>
	<g>
	</g>
	<g>
	</g>
	<g>
	</g>
	<g>
	</g>
	<g>
	</g>
</g>
</svg>
