<?xml version="1.0" encoding="utf-8"?>
<!-- Generator: Adobe Illustrator 16.0.0, SVG Export Plug-In . SVG Version: 6.00 Build 0)  -->
<!DOCTYPE svg PUBLIC "-//W3C//DTD SVG 1.1//EN" "http://www.w3.org/Graphics/SVG/1.1/DTD/svg11.dtd">
<svg version="1.1" id="Capa_1" xmlns="http://www.w3.org/2000/svg" xmlns:xlink="http://www.w3.org/1999/xlink" x="0px" y="0px"
	 width="20px" height="20px" viewBox="0 0 20 20" enable-background="new 0 0 20 20" xml:space="preserve">
<path fill="#DB0304" d="M19.809,10.908l-4.482-4.483V2.021c0-0.36-0.292-0.651-0.652-0.651c-0.359,0-0.65,0.292-0.65,0.651v3.102
	L10.46,1.56c-0.254-0.254-0.667-0.254-0.921,0l-9.348,9.348c-0.254,0.254-0.254,0.667,0,0.922c0.254,0.254,0.667,0.254,0.921,0
	l1.626-1.626v7.776c0,0.359,0.292,0.651,0.651,0.651h13.222c0.359,0,0.65-0.292,0.65-0.651v-7.776l1.627,1.626
	c0.127,0.127,0.293,0.189,0.46,0.189s0.333-0.062,0.461-0.19C20.063,11.575,20.063,11.162,19.809,10.908z M15.959,17.328H4.041V8.9
	L10,2.942l5.959,5.959V17.328z"/>
</svg>
