<?xml version="1.0" encoding="utf-8"?>
<!-- Generator: Adobe Illustrator 16.0.0, SVG Export Plug-In . SVG Version: 6.00 Build 0)  -->
<!DOCTYPE svg PUBLIC "-//W3C//DTD SVG 1.1//EN" "http://www.w3.org/Graphics/SVG/1.1/DTD/svg11.dtd">
<svg version="1.1" id="Capa_1" xmlns="http://www.w3.org/2000/svg" xmlns:xlink="http://www.w3.org/1999/xlink" x="0px" y="0px"
	 width="20px" height="20px" viewBox="0 0 20 20" enable-background="new 0 0 20 20" xml:space="preserve">
<g display="none">
	<g display="inline">
		<path fill="#DB0304" d="M17.656,0H2.344C1.051,0,0,1.051,0,2.344v15.312C0,18.949,1.051,20,2.344,20h15.312
			C18.949,20,20,18.949,20,17.656V2.344C20,1.051,18.949,0,17.656,0z M18.438,17.656c0,0.431-0.351,0.781-0.781,0.781h-4.453V12.07
			h2.414l0.398-2.422h-2.812v-1.68c0-0.663,0.509-1.172,1.172-1.172h1.602V4.375h-1.602c-1.989,0-3.593,1.611-3.593,3.601v1.673
			H8.438v2.422h2.345v6.367H2.344c-0.431,0-0.781-0.351-0.781-0.781V2.344c0-0.431,0.351-0.781,0.781-0.781h15.312
			c0.431,0,0.781,0.351,0.781,0.781V17.656z"/>
	</g>
</g>
<g display="none">
	<path display="inline" fill="none" stroke="#DB0304" stroke-width="2" stroke-linecap="round" stroke-linejoin="round" d="
		M19,14.158v2.665c0.003,0.982-0.789,1.78-1.77,1.784c-0.057,0-0.112-0.002-0.168-0.006c-2.732-0.297-5.357-1.233-7.665-2.728
		c-2.148-1.364-3.967-3.184-5.331-5.33C2.565,8.226,1.63,5.587,1.339,2.841C1.251,1.863,1.971,1,2.949,0.911
		c0.054-0.004,0.105-0.007,0.158-0.007h2.665c0.893-0.009,1.652,0.645,1.777,1.528C7.66,3.285,7.87,4.123,8.17,4.929
		c0.244,0.649,0.087,1.38-0.4,1.874L6.643,7.931c1.265,2.224,3.107,4.066,5.331,5.33l1.127-1.127c0.493-0.488,1.226-0.645,1.875-0.4
		c0.806,0.301,1.643,0.51,2.496,0.622C18.364,12.48,19.021,13.257,19,14.158z"/>
</g>
<g display="none">
	<g>
		<g display="inline">
			<path fill="#DB0304" d="M9.114-1.096C4.156-0.832,0.243,3.812,0.258,9.393c0.004,1.699,0.369,3.304,1.014,4.723l-0.988,5.396
				c-0.054,0.292,0.18,0.546,0.438,0.479l4.704-1.254c1.208,0.679,2.565,1.069,4.001,1.094c5.067,0.088,9.294-4.438,9.453-10.135
				C19.047,3.589,14.565-1.388,9.114-1.096z M14.727,15.156c-1.379,1.548-3.209,2.402-5.157,2.402c-1.14,0-2.232-0.288-3.245-0.856
				L5.67,16.335l-2.884,0.769l0.607-3.312l-0.323-0.711c-0.526-1.157-0.792-2.409-0.792-3.72c0-2.191,0.758-4.25,2.136-5.799
				C5.779,2.028,7.64,1.162,9.57,1.162c1.948,0,3.778,0.854,5.157,2.401c1.375,1.549,2.134,3.607,2.135,5.796
				C16.861,11.531,16.091,13.621,14.727,15.156z"/>
			<path fill="#DB0304" d="M14.089,11.629l-1.804-0.581c-0.238-0.077-0.492,0-0.666,0.197l-0.44,0.503
				c-0.187,0.215-0.469,0.283-0.715,0.171c-0.853-0.388-2.648-2.183-3.106-3.08C7.225,8.579,7.247,8.257,7.409,8.02l0.385-0.56
				c0.152-0.22,0.184-0.514,0.083-0.768l-0.759-1.93C6.937,4.3,6.412,4.165,6.068,4.492C5.565,4.971,4.968,5.699,4.895,6.503
				c-0.128,1.421,0.414,3.211,2.463,5.364c2.368,2.485,4.264,2.812,5.499,2.477c0.7-0.191,1.259-0.955,1.613-1.581
				C14.712,12.337,14.521,11.771,14.089,11.629z"/>
		</g>
	</g>
	<g display="inline">
		<g>
			<g>
				<path fill="#DB0304" d="M18.088,2.102H1.968c-0.946,0-1.718,0.784-1.718,1.75v11.675c0,0.962,0.769,1.752,1.718,1.752h16.12
					c0.945,0,1.719-0.784,1.719-1.752V3.852C19.807,2.89,19.039,2.102,18.088,2.102z M17.852,3.268l-7.787,7.933L2.211,3.268H17.852
					z M1.395,15.285V4.088l5.52,5.576L1.395,15.285z M2.206,16.111l5.522-5.627l1.936,1.958c0.224,0.224,0.585,0.224,0.809-0.003
					l1.887-1.923l5.492,5.597H2.206V16.111z M18.661,15.285l-5.492-5.596l5.492-5.597V15.285z"/>
			</g>
		</g>
	</g>
</g>
<g display="none">
	<g display="inline">
		<g>
			<path fill="#DB0304" d="M13.75,0h-7.5C2.799,0,0,2.799,0,6.25v7.5C0,17.201,2.799,20,6.25,20h7.5c3.451,0,6.25-2.799,6.25-6.25
				v-7.5C20,2.799,17.201,0,13.75,0z M18.125,13.75c0,2.412-1.963,4.375-4.375,4.375h-7.5c-2.413,0-4.375-1.963-4.375-4.375v-7.5
				c0-2.413,1.962-4.375,4.375-4.375h7.5c2.412,0,4.375,1.962,4.375,4.375V13.75z"/>
		</g>
	</g>
	<g display="inline">
		<g>
			<path fill="#DB0304" d="M10,5c-2.761,0-5,2.239-5,5c0,2.762,2.239,5,5,5c2.762,0,5-2.238,5-5C15,7.239,12.762,5,10,5z M10,13.125
				c-1.723,0-3.125-1.402-3.125-3.125c0-1.724,1.402-3.125,3.125-3.125S13.125,8.276,13.125,10
				C13.125,11.723,11.723,13.125,10,13.125z"/>
		</g>
	</g>
	<g display="inline">
		<g>
			<circle fill="#DB0304" cx="15.375" cy="4.625" r="0.666"/>
		</g>
	</g>
	<g display="inline">
	</g>
	<g display="inline">
	</g>
	<g display="inline">
	</g>
	<g display="inline">
	</g>
	<g display="inline">
	</g>
	<g display="inline">
	</g>
	<g display="inline">
	</g>
	<g display="inline">
	</g>
	<g display="inline">
	</g>
	<g display="inline">
	</g>
	<g display="inline">
	</g>
	<g display="inline">
	</g>
	<g display="inline">
	</g>
	<g display="inline">
	</g>
	<g display="inline">
	</g>
</g>
<g>
	<g display="none">
		<g display="inline">
			<path fill="#DB0304" d="M9.625-0.5C2.756-0.5-2.833,4.239-2.833,10.066c0,5.827,5.59,10.567,12.459,10.567
				c6.871,0,12.459-4.74,12.459-10.567C22.085,4.239,16.496-0.5,9.625-0.5z M9.625,19.928c-6.412,0-11.629-4.424-11.629-9.861
				S3.214,0.205,9.625,0.205c6.414,0,11.63,4.424,11.63,9.862C21.256,15.506,16.039,19.928,9.625,19.928z"/>
			<path fill="#DB0304" d="M9.625,1.614c-0.229,0-0.416,0.155-0.416,0.351v8.102H2.98c-0.229,0-0.415,0.157-0.415,0.353
				c0,0.194,0.186,0.353,0.415,0.353h6.645c0.23,0,0.417-0.159,0.417-0.353V1.965C10.042,1.771,9.856,1.614,9.625,1.614z"/>
		</g>
	</g>
	<g display="none">
		<g display="inline">
			<path fill="#DB0304" d="M21.292,14.884c-0.063-0.104-0.176-0.176-0.308-0.199c-0.034-0.005-2.715-0.507-6.127-0.908
				c-0.006-0.013-0.009-0.023-0.017-0.039c-1.505-2.979-2.004-2.979-2.271-2.979c-0.322,0-1.93,0.28-3.234,0.517V8.408
				c0.02,0,0.038-0.001,0.058-0.003c0.447,0.102,0.902,0.152,1.352,0.152c1.367,0,2.695-0.457,3.695-1.303
				c1.386-1.173,1.878-2.887,1.291-4.472c-0.046-0.122-0.159-0.217-0.303-0.256c-1.868-0.5-3.891-0.081-5.275,1.095
				C9.939,3.804,9.748,4,9.577,4.207C9.404,3.048,8.787,1.948,7.772,1.088C6.099-0.331,3.656-0.837,1.397-0.235
				C1.254-0.197,1.141-0.102,1.096,0.02c-0.711,1.916-0.113,3.988,1.56,5.409c1.207,1.023,2.815,1.57,4.465,1.57
				c0.43,0,0.862-0.038,1.29-0.112v4.562c-0.178,0.031-0.337,0.063-0.467,0.088c-0.966-0.158-2.557-0.333-3.092,0.121l-0.847,0.72
				l-1.282,0.361c-1.557,0.441-2.09,2.393-2.15,2.623c-0.528-0.27-1.05-0.593-1.552-0.975c-0.085-0.065-0.195-0.102-0.309-0.102
				c-1.022,0-1.386,0.421-1.386,0.783c0,0.111,0,0.324,0.971,1.279c0.376,0.367,1.166,1.106,2.247,1.906
				c1.663,1.228,4.137,2.69,6.482,2.69c2.702,0,4.633-0.482,6.044-0.835c0.764-0.189,1.367-0.339,1.807-0.339
				c1.407,0,4.118-0.381,4.234-0.399c0.158-0.021,0.292-0.112,0.353-0.239l1.847-3.918C21.363,15.104,21.356,14.985,21.292,14.884z
				 M10.81,4.172c1.082-0.918,2.638-1.276,4.109-0.958c0.374,1.25-0.047,2.569-1.132,3.485c-0.988,0.842-2.375,1.21-3.731,1.024
				c0.375-0.527,0.901-1.133,1.334-1.315c0.228-0.097,0.319-0.332,0.206-0.525c-0.113-0.193-0.392-0.272-0.62-0.176
				c-0.54,0.228-1.047,0.754-1.426,1.229C9.491,5.917,9.934,4.915,10.81,4.172z M6.308,4.032c1.212,0.683,1.65,2.098,1.656,2.12
				c0.001,0.001,0.001,0.002,0.001,0.002C6.273,6.381,4.545,5.918,3.309,4.871C1.937,3.707,1.412,2.03,1.91,0.451
				c1.861-0.42,3.838,0.024,5.21,1.188c1.197,1.016,1.749,2.42,1.54,3.812C8.392,4.875,7.832,3.951,6.821,3.378
				C6.609,3.258,6.323,3.307,6.18,3.489C6.039,3.668,6.097,3.912,6.308,4.032z M1.475,15.536c0.113-0.485,0.613-1.794,1.541-2.057
				l1.386-0.39c0.067-0.021,0.13-0.054,0.181-0.098l0.915-0.775c0.227-0.119,1.347-0.07,2.362,0.101
				c0.063,0.012,0.127,0.01,0.19-0.001c1.836-0.347,3.874-0.707,4.412-0.767c0.267,0.249,0.844,1.193,1.328,2.109
				c-0.535-0.058-1.083-0.11-1.637-0.156c-4.59-0.39-7.231-0.054-7.851,0.997c-0.125,0.211-0.117,0.441,0.023,0.631
				c0.383,0.524,1.739,0.72,5.009,0.72c0.464,0,0.681,0.105,0.725,0.194c0.038,0.079-0.009,0.204-0.113,0.302
				c-0.237,0.118-1.793,0.5-4.037,0.379C4.646,16.657,3,16.414,1.357,15.725C1.416,15.672,1.457,15.608,1.475,15.536z
				 M18.705,18.633c-0.713,0.095-2.734,0.35-3.827,0.35c-0.571,0-1.23,0.165-2.068,0.374c-1.356,0.338-3.215,0.803-5.784,0.803
				c-1.998,0-4.2-1.29-5.696-2.37c-1.592-1.149-2.676-2.267-3.002-2.68c0.063-0.013,0.142-0.025,0.222-0.035
				c2.514,1.854,5.442,2.352,7.473,2.439c2.097,0.092,4.14-0.242,4.564-0.604c0.382-0.323,0.513-0.791,0.329-1.166
				c-0.123-0.254-0.492-0.677-1.578-0.677c-2.878,0-3.831-0.17-4.135-0.302c0.293-0.283,1.553-0.935,6.86-0.483
				c3.586,0.304,6.927,0.852,8.19,1.073L18.705,18.633z"/>
		</g>
	</g>
	<g>
		<g>
			<path fill="#DB0304" d="M9.809,4.394c-1.605,0-2.91,1.108-2.91,2.47c0,1.359,1.305,2.467,2.91,2.467
				c1.604,0,2.911-1.108,2.911-2.467C12.72,5.502,11.413,4.394,9.809,4.394z M9.809,8.626c-1.146,0-2.079-0.792-2.079-1.762
				c0-0.973,0.933-1.763,2.079-1.763c1.146,0,2.078,0.79,2.078,1.763C11.888,7.834,10.955,8.626,9.809,8.626z"/>
			<path fill="#DB0304" d="M15.373,2.145c-1.507-1.278-3.509-1.981-5.638-1.981c-2.129,0-4.13,0.703-5.637,1.981
				c-2.787,2.363-3.133,6.809-0.751,9.503l6.387,7.822l6.379-7.813C18.506,8.953,18.16,4.507,15.373,2.145z M15.438,11.246
				L9.734,18.23l-5.712-6.996C1.86,8.79,2.171,4.775,4.686,2.642c1.35-1.144,3.143-1.773,5.049-1.773
				c1.909,0,3.703,0.629,5.05,1.773C17.302,4.775,17.61,8.79,15.438,11.246z"/>
		</g>
		<g>
		</g>
		<g>
		</g>
		<g>
		</g>
		<g>
		</g>
		<g>
		</g>
		<g>
		</g>
		<g>
		</g>
		<g>
		</g>
		<g>
		</g>
		<g>
		</g>
		<g>
		</g>
		<g>
		</g>
		<g>
		</g>
		<g>
		</g>
		<g>
		</g>
	</g>
</g>
</svg>
