<?xml version="1.0" encoding="utf-8"?>
<!-- Generator: Adobe Illustrator 16.0.0, SVG Export Plug-In . SVG Version: 6.00 Build 0)  -->
<!DOCTYPE svg PUBLIC "-//W3C//DTD SVG 1.1//EN" "http://www.w3.org/Graphics/SVG/1.1/DTD/svg11.dtd">
<svg version="1.1" id="Layer_1" xmlns="http://www.w3.org/2000/svg" xmlns:xlink="http://www.w3.org/1999/xlink" x="0px" y="0px"
	 width="20px" height="20px" viewBox="0 0 20 20" enable-background="new 0 0 20 20" xml:space="preserve">
<path d="M4.837,18.572c1.545,0.931,3.312,1.42,5.127,1.42c5.5,0,10.035-4.488,10.035-9.996C20,4.495,15.473,0,9.965,0
	C4.474,0,0.007,4.484,0.007,9.996c0,1.84,0.49,3.62,1.42,5.166L0,20L4.837,18.572z M1.179,9.996c0-4.866,3.941-8.825,8.786-8.825
	c4.887,0,8.863,3.959,8.863,8.825c0,4.866-3.977,8.825-8.863,8.825c-1.682,0-3.316-0.477-4.726-1.378l-0.225-0.145l-3.281,0.969
	l0.968-3.281l-0.144-0.225C1.655,13.352,1.179,11.703,1.179,9.996z"/>
<path d="M4.868,8.154c0.194,1.016,0.768,2.971,2.44,4.643c1.672,1.672,3.627,2.247,4.643,2.44c1.164,0.222,2.871,0.255,3.705-0.579
	l0.466-0.466c0.235-0.235,0.364-0.547,0.364-0.88c0-0.332-0.129-0.644-0.364-0.879l-1.86-1.86c-0.234-0.235-0.547-0.364-0.879-0.364
	s-0.645,0.129-0.88,0.364l-0.466,0.466c-0.283,0.283-0.82,0.285-1.105,0.003L9.075,9.108C9.073,9.105,9.07,9.103,9.067,9.1
	c-0.285-0.285-0.285-0.748,0-1.033l0.465-0.465c0.486-0.486,0.486-1.273,0-1.759l-1.861-1.86c-0.485-0.485-1.273-0.485-1.758,0
	L5.448,4.449v0C4.782,5.115,4.56,6.535,4.868,8.154z M6.276,5.277C6.765,4.8,6.738,4.791,6.792,4.791
	c0.018,0,0.037,0.007,0.051,0.021c1.96,1.971,1.882,1.855,1.882,1.912c0,0.02-0.007,0.037-0.021,0.051L8.239,7.239
	C7.498,7.98,7.495,9.179,8.234,9.923l1.857,1.935c0.003,0.003,0.006,0.006,0.008,0.009c0.741,0.74,2.024,0.742,2.767,0l0.465-0.465
	c0.028-0.029,0.074-0.029,0.103,0c1.96,1.971,1.881,1.854,1.881,1.911c0,0.02-0.007,0.036-0.021,0.051l-0.466,0.465
	c-0.318,0.319-1.334,0.51-2.658,0.257c-0.883-0.168-2.583-0.667-4.033-2.117S6.188,8.819,6.019,7.936
	C5.767,6.611,5.958,5.596,6.276,5.277z"/>
</svg>
