<?xml version="1.0" encoding="utf-8"?>
<!-- Generator: Adobe Illustrator 16.0.0, SVG Export Plug-In . SVG Version: 6.00 Build 0)  -->
<!DOCTYPE svg PUBLIC "-//W3C//DTD SVG 1.1//EN" "http://www.w3.org/Graphics/SVG/1.1/DTD/svg11.dtd">
<svg version="1.1" id="Capa_1" xmlns="http://www.w3.org/2000/svg" xmlns:xlink="http://www.w3.org/1999/xlink" x="0px" y="0px"
	 width="44.667px" height="44.667px" viewBox="0.167 -24.667 44.667 44.667" enable-background="new 0.167 -24.667 44.667 44.667"
	 xml:space="preserve">
<path fill="#4CAF50" d="M22.257-24.167h-0.013l0,0c-12.175,0-22.077,9.904-22.077,22.083c0,4.831,1.557,9.308,4.205,12.943
	L1.62,19.063l8.488-2.713C13.6,18.663,17.765,20,22.257,20c12.174,0,22.077-9.907,22.077-22.083
	C44.334-14.259,34.431-24.167,22.257-24.167z"/>
<path fill="#FAFAFA" d="M35.105,7.017c-0.532,1.505-2.646,2.751-4.333,3.119c-1.155,0.244-2.66,0.44-7.734-1.665
	c-6.49-2.688-10.671-9.282-10.995-9.71C11.73-1.666,9.42-4.73,9.42-7.9s1.609-4.712,2.258-5.375
	c0.532-0.544,1.413-0.792,2.258-0.792c0.274,0,0.521,0.014,0.739,0.025c0.65,0.028,0.976,0.067,1.404,1.09
	c0.531,1.284,1.829,4.453,1.983,4.779c0.157,0.326,0.314,0.766,0.095,1.194c-0.207,0.442-0.39,0.638-0.717,1.014
	c-0.325,0.375-0.633,0.662-0.959,1.066c-0.299,0.35-0.635,0.726-0.26,1.375c0.376,0.634,1.672,2.751,3.583,4.451
	c2.465,2.195,4.465,2.896,5.178,3.196c0.533,0.219,1.167,0.168,1.558-0.247c0.494-0.535,1.104-1.417,1.725-2.286
	c0.442-0.625,1-0.703,1.585-0.481c0.597,0.207,3.753,1.766,4.399,2.09c0.65,0.326,1.079,0.479,1.234,0.754
	C35.639,4.227,35.639,5.512,35.105,7.017z"/>
</svg>
